HIERARCHY
ROOT Hips
{
	OFFSET 0.00000 0.00000 0.00000
	CHANNELS 6 Xposition Yposition Zposition Zrotation Yrotation Xrotation 
	JOINT LHipJoint
	{
		OFFSET 0 0 0
		CHANNELS 3 Zrotation Yrotation Xrotation
		JOINT LeftUpLeg
		{
			OFFSET 1.56857 -1.73443 1.15205
			CHANNELS 3 Zrotation Yrotation Xrotation
			JOINT LeftLeg
			{
				OFFSET 2.39362 -6.57643 0.00000
				CHANNELS 3 Zrotation Yrotation Xrotation
				JOINT LeftFoot
				{
					OFFSET 2.50952 -6.89485 0.00000
					CHANNELS 3 Zrotation Yrotation Xrotation
					JOINT LeftToeBase
					{
						OFFSET 0.17171 -0.47178 1.88682
						CHANNELS 3 Zrotation Yrotation Xrotation
						End Site
						{
							OFFSET 0.00000 -0.00000 0.98146
						}
					}
				}
			}
		}
	}
	JOINT RHipJoint
	{
		OFFSET 0 0 0
		CHANNELS 3 Zrotation Yrotation Xrotation
		JOINT RightUpLeg
		{
			OFFSET -1.28153 -1.73443 1.15205
			CHANNELS 3 Zrotation Yrotation Xrotation
			JOINT RightLeg
			{
				OFFSET -2.26861 -6.23296 0.00000
				CHANNELS 3 Zrotation Yrotation Xrotation
				JOINT RightFoot
				{
					OFFSET -2.54143 -6.98254 0.00000
					CHANNELS 3 Zrotation Yrotation Xrotation
					JOINT RightToeBase
					{
						OFFSET -0.23309 -0.64041 1.93119
						CHANNELS 3 Zrotation Yrotation Xrotation
						End Site
						{
							OFFSET -0.00000 -0.00000 1.02013
						}
					}
				}
			}
		}
	}
	JOINT LowerBack
	{
		OFFSET 0 0 0
		CHANNELS 3 Zrotation Yrotation Xrotation
		JOINT Spine
		{
			OFFSET -0.07096 2.10460 -0.27878
			CHANNELS 3 Zrotation Yrotation Xrotation
			JOINT Spine1
			{
				OFFSET -0.00826 2.13662 -0.08279
				CHANNELS 3 Zrotation Yrotation Xrotation
				JOINT Neck
				{
					OFFSET 0 0 0
					CHANNELS 3 Zrotation Yrotation Xrotation
					JOINT Neck1
					{
						OFFSET 0.03239 1.77799 0.24435
						CHANNELS 3 Zrotation Yrotation Xrotation
						JOINT Head
						{
							OFFSET 0.01026 1.74194 -0.49664
							CHANNELS 3 Zrotation Yrotation Xrotation
							End Site
							{
								OFFSET 0.00170 1.83057 -0.19653
							}
						}
					}
				}
				JOINT LeftShoulder
				{
					OFFSET 0 0 0
					CHANNELS 3 Zrotation Yrotation Xrotation
					JOINT LeftArm
					{
						OFFSET 3.19178 1.35907 -0.31412
						CHANNELS 3 Zrotation Yrotation Xrotation
						JOINT LeftForeArm
						{
							OFFSET 4.85247 -0.00000 -0.00000
							CHANNELS 3 Zrotation Yrotation Xrotation
							JOINT LeftHand
							{
								OFFSET 3.55584 -0.00000 0.00000
								CHANNELS 3 Zrotation Yrotation Xrotation
								JOINT LeftFingerBase
								{
									OFFSET 0 0 0
									CHANNELS 3 Zrotation Yrotation Xrotation
									JOINT LeftHandIndex1
									{
										OFFSET 0.69320 -0.00000 0.00000
										CHANNELS 3 Zrotation Yrotation Xrotation
										End Site
										{
											OFFSET 0.55888 -0.00000 0.00000
										}
									}
								}
								JOINT LThumb
								{
									OFFSET 0 0 0
									CHANNELS 3 Zrotation Yrotation Xrotation
									End Site
									{
										OFFSET 0.56741 -0.00000 0.56741
									}
								}
							}
						}
					}
				}
				JOINT RightShoulder
				{
					OFFSET 0 0 0
					CHANNELS 3 Zrotation Yrotation Xrotation
					JOINT RightArm
					{
						OFFSET -3.28999 1.24191 -0.26899
						CHANNELS 3 Zrotation Yrotation Xrotation
						JOINT RightForeArm
						{
							OFFSET -4.64462 -0.00000 0.00000
							CHANNELS 3 Zrotation Yrotation Xrotation
							JOINT RightHand
							{
								OFFSET -3.40703 -0.00000 0.00000
								CHANNELS 3 Zrotation Yrotation Xrotation
								JOINT RightFingerBase
								{
									OFFSET 0 0 0
									CHANNELS 3 Zrotation Yrotation Xrotation
									JOINT RightHandIndex1
									{
										OFFSET -0.61958 -0.00000 0.00000
										CHANNELS 3 Zrotation Yrotation Xrotation
										End Site
										{
											OFFSET -0.49952 -0.00000 0.00000
										}
									}
								}
								JOINT RThumb
								{
									OFFSET 0 0 0
									CHANNELS 3 Zrotation Yrotation Xrotation
									End Site
									{
										OFFSET -0.50715 -0.00000 0.50715
									}
								}
							}
						}
					}
				}
			}
		}
	}
}
MOTION
Frames: 5
Frame Time: 0.0512821
0.00 0.00 0.00 304.8870 75.4764 308.7400 0.0000 0.0000 0.0000 6.3077 -3.2604 -46.9033 2.7849 10.3384 30.0798 0.3169 2.1428 -11.6380 0.0072 -0.5497 -1.5104 0.0000 0.0000 0.0000 29.6636 -4.4244 28.4123 -0.6134 -5.0126 13.9445 -0.9335 17.0190 -19.6141 -0.1321 2.3425 -6.4532 7.0935 5.9774 15.1450 1.3497 9.2157 3.9233 -4.0842 4.6165 -3.3489 5.3730 -0.3289 -28.8199 -0.9716 -2.3985 17.6354 -1.6090 -0.8331 10.2537 -0.0000 -0.0000 0.0000 -51.7511 50.8918 69.7808 34.4703 -44.4302 -14.4413 -0.0000 0.0000 -26.7550 32.3230 -14.6160 -9.0715 -7.1250 0.0000 -0.0000 3.2150 12.8499 -2.4234 -0.0000 -0.0000 0.0000 56.0983 29.3278 64.2759 -115.1311 57.4736 -81.5796 0.0000 -0.0000 -22.5804 -21.6410 -23.5923 9.0228 7.1250 -0.0000 -0.0000 8.1117 -54.9632 -1.9945
0.00 0.00 0.00 319.8920 79.3697 324.7780 0.0000 0.0000 0.0000 -0.6216 -5.4185 -46.4446 3.7770 11.8575 35.2299 -0.0592 5.4925 -5.6263 0.0750 1.7662 4.8600 0.0000 0.0000 0.0000 24.0087 -2.8346 26.1546 -1.7739 -8.3782 23.8689 0.0164 9.7237 -6.5319 -0.0781 -1.8028 4.9610 2.2350 6.0870 13.0936 -1.2204 8.4132 3.2157 -3.8092 4.2101 -3.3834 5.0904 -0.5068 -29.2428 -0.1603 -2.7511 17.7979 -1.3332 -0.8978 10.3923 -0.0000 0.0000 0.0000 -51.5113 52.1544 68.8759 34.1687 -44.2093 -14.2306 -0.0000 0.0000 -26.6749 32.9098 -15.2508 -9.6611 -7.1250 0.0000 -0.0000 3.5226 12.0139 -2.7175 -0.0000 0.0000 0.0000 58.8455 24.3217 65.5337 -117.1524 57.0222 -83.2796 0.0000 -0.0000 -22.4169 -23.5827 -22.5354 9.4977 7.1250 -0.0000 -0.0000 5.7052 -54.2485 -1.2999
0.00 0.00 0.00 348.2320 82.8453 352.0650 0.0000 0.0000 0.0000 -10.3562 -6.1831 -40.5663 4.5169 12.8182 38.6916 0.0443 4.8136 -8.2245 0.0251 1.0236 2.8136 0.0000 0.0000 0.0000 18.5347 -0.8830 18.7178 -5.0111 -13.3963 40.8707 -0.0530 0.9512 4.8101 -0.1439 -2.4446 6.7362 -2.3551 5.4193 12.8421 -3.0399 6.9441 3.9032 -2.9050 3.5370 -2.9410 4.3805 -0.3451 -30.2641 -0.7992 -2.1287 17.4757 -1.3538 -0.7576 10.4558 0.0000 0.0000 0.0000 -59.4578 45.1387 63.3800 29.6671 -40.6063 -11.1923 -0.0000 0.0000 -27.8862 34.9615 -17.3404 -11.7718 -7.1250 0.0000 -0.0000 4.5572 9.1764 -3.7845 0.0000 0.0000 0.0000 65.6769 15.3495 67.3067 -107.6688 58.7869 -75.2393 0.0000 -0.0000 -20.2138 -23.3862 -22.9391 9.5672 7.1250 -0.0000 -0.0000 6.0495 -54.6327 -1.4355
0.00 0.00 0.00 470.1330 74.8192 471.6110 0.0000 0.0000 0.0000 -34.3254 6.2733 15.8417 0.0186 0.8798 2.4181 0.7002 -7.1414 -14.9958 0.0017 -0.2699 -0.7416 0.0000 0.0000 0.0000 -0.6354 3.5695 -30.9690 -2.2215 -9.3129 26.7792 -0.3492 -2.7219 -12.4984 -0.6587 -5.1909 14.4539 -17.7748 -0.8410 10.6200 -4.5272 -2.7265 3.1686 5.3842 -1.1981 -1.8997 3.0588 1.8903 -27.9128 0.2435 1.3295 22.3453 -0.1648 0.9174 11.9751 -0.0000 -0.0000 0.0000 -76.5742 -22.8015 54.3483 45.3707 -50.9488 -22.5263 -0.0000 0.0000 -22.7259 36.4086 -26.0971 -17.9741 -7.1250 0.0000 -0.0000 3.8531 -1.2835 -3.9473 -0.0000 -0.0000 0.0000 64.8178 -27.9517 47.3533 -31.4082 42.0702 -12.3424 0.0000 -0.0000 -12.8236 -21.4557 -21.5334 8.2085 7.1250 -0.0000 -0.0000 7.5422 -52.7992 -1.4541
0.00 0.00 0.00 481.6770 66.9051 484.9610 0.0000 0.0000 0.0000 -35.6321 6.9752 27.0167 0.1056 2.0952 5.7689 1.1088 -14.2694 -19.9526 0.2669 -3.3232 -9.1798 0.0000 0.0000 0.0000 -17.2574 4.7161 -39.0851 -0.8447 -5.8623 16.3855 -0.5740 -2.6501 -15.5189 -0.5132 -4.5917 12.7475 -22.6562 -3.7523 9.0284 -3.8278 -6.6774 2.4175 8.8344 -3.2478 -0.2584 4.4802 2.7076 -27.0539 -1.6384 2.4661 22.3114 -0.9096 1.2893 11.8689 0.0000 0.0000 0.0000 -60.5657 -38.2112 49.8428 77.1932 -59.3711 -48.9324 -0.0000 0.0000 -20.3202 39.1730 -27.3790 -20.5412 -7.1250 0.0000 -0.0000 5.1612 -3.6424 -5.5004 0.0000 0.0000 0.0000 37.8328 -41.7341 62.6807 -48.0070 52.1594 -24.5913 0.0000 -0.0000 -15.5156 -20.5270 -22.1506 8.0355 7.1250 -0.0000 -0.0000 8.7012 -53.2652 -1.7796
